<?xml version="1.0" encoding="UTF-8"?> <!-- Generator: Adobe Illustrator 24.1.0, SVG Export Plug-In . SVG Version: 6.00 Build 0) --> <svg xmlns="http://www.w3.org/2000/svg" xmlns:xlink="http://www.w3.org/1999/xlink" version="1.1" id="Layer_1" x="0px" y="0px" width="919px" height="948px" viewBox="0 0 919 948" style="enable-background:new 0 0 919 948;" xml:space="preserve"> <style type="text/css"> .st0{fill:#DCEFFF;} .st1{fill:#918093;} .st2{fill:#6B5E6D;} .st3{fill:#BC4073;} .st4{fill:#15253D;} .st5{fill:#894E4E;} .st6{fill:#915350;} .st7{fill:#CEAB8B;} .st8{fill:#E1EAF4;} .st9{fill:#E5C2A5;} .st10{fill:#BC9A7E;} .st11{fill:#513554;} .st12{fill:#A8C4E5;} .st13{fill:#E9F5FF;} .st14{fill:#A33467;} .st15{fill:#D84177;} .st16{fill:#FFFFFF;} .st17{fill:#FFAA82;} .st18{fill:#8585FF;} .st19{fill:#7878EA;} .st20{fill:#B3B3FF;} .st21{fill:#A1A1E5;} .st22{fill:#565682;} .st23{fill:#6B6B9B;} .st24{fill:#45446C;} .st25{fill:#56547F;} .st26{fill:#46466B;} .st27{fill:#FCFEFF;} .st28{fill:url(#SVGID_1_);} .st29{fill:url(#SVGID_2_);} .st30{fill:#B2D0ED;} .st31{fill:#8DB0DA;} .st32{fill:#97CBFF;} .st33{fill:#87A6C4;} .st34{fill:#7694AD;} .st35{fill:#93B5D1;} .st36{fill:#353559;} .st37{fill:#27E0C0;} .st38{fill:#8AACCE;} .st39{fill:#B5CFEA;} .st40{fill:url(#SVGID_3_);} .st41{opacity:0.29;} .st42{fill:url(#SVGID_4_);} .st43{fill:#6F6F9E;} .st44{opacity:0.28;fill:#FFFFFF;enable-background:new ;} .st45{opacity:0.46;fill:#FFFFFF;enable-background:new ;} .st46{fill:#492817;} .st47{fill:#DD4078;} .st48{fill:#EF487C;} .st49{fill:url(#SVGID_5_);} .st50{fill:url(#SVGID_6_);} .st51{opacity:0.32;fill:#7474A3;enable-background:new ;} .st52{opacity:0.47;fill:#8585FF;enable-background:new ;} .st53{fill:#22C6A6;} .st54{opacity:0.36;fill:#27E0C0;enable-background:new ;} .st55{fill:#F1A32F;} .st56{fill:#FFD22D;} .st57{opacity:0.36;fill:#FFD22D;enable-background:new ;} </style> <g id="image"> <path class="st0" d="M539.2,892.9L136.7,656.3c-21.5-12.4-21.6-27.6-0.2-40.2l227.8-134.9l440.6,254.4L539.2,892.9z"></path> <path class="st1" d="M806.3,747l1.2-0.2c3.5-0.5,6-3.8,5.4-7.3l-29.2-196.6c-0.5-3.5-3.8-6-7.3-5.4l-1.2,0.2 c-3.5,0.5-6,3.8-5.4,7.3L799,741.6C799.5,745.1,802.8,747.5,806.3,747z"></path> <path class="st1" d="M533.9,911.5L533.9,911.5c-3.8-0.3-6.7-3.7-6.3-7.5L555,586c0.3-3.8,3.7-6.7,7.5-6.3l0,0 c3.8,0.3,6.7,3.7,6.3,7.5l-27.4,318C541.2,908.9,537.8,911.8,533.9,911.5z"></path> <polygon class="st2" points="556.2,734.3 542.9,725.2 546.7,687 560.9,689.3 "></polygon> <polygon class="st2" points="781.3,621.9 793.9,611.9 787.4,574 773.4,577.2 "></polygon> <polygon class="st0" points="110.3,788.7 350.1,662.9 481.3,738.6 241.5,864.5 "></polygon> <path class="st3" d="M272.7,708.7l-135.3-78.1c-12.5-7.2-7.5-23.1,11.3-35.3l48.6-31.6c18.7-12.2,94.5-20.6,107-13.3l84.7,52.1 c12.5,7.2,7.9,53.5-10.9,65.7l-48.6,31.6C310.8,711.9,285.2,715.9,272.7,708.7z"></path> <g> <path class="st4" d="M364.4,717.4c-0.8,0.6-12.8,5.8-13.5,6.4c-1.2,0.9-4.7,3.4-6.8,4.8c-4.4,2.8-14,14-28.2,5 c-20.8-13.2,32.2-44.5,32.2-44.5l23.3-10.6c2.8-1.3,6.2-1.1,8.9,0.5l0,0c5.2,2.9,6.9,9.6,3.8,14.4 C378.7,701.7,378.2,706.6,364.4,717.4z"></path> <path class="st5" d="M362.4,710.8c-0.8,0.6-12.8,5.8-13.5,6.4c-1.2,0.9-4.7,3.4-6.8,4.8c-4.4,2.8-14,14-28.2,5 c-20.8-13.2,32.2-44.5,32.2-44.5l23.3-10.6c2.8-1.3,6.2-1.1,8.9,0.5l0,0c5.2,2.9,6.9,9.6,3.8,14.4 C376.6,695.1,376.1,700.1,362.4,710.8z"></path> <path class="st6" d="M377.4,695.3c1.3-2.2,3.3-6.4,5-9c3.2-4.8,1.1-11-4.1-13.9c-2.8-1.6-6.1-1.8-8.9-0.5l-11.4,5.2 C364.4,679.8,371.7,685.9,377.4,695.3z"></path> <g> <g> <path class="st7" d="M271.6,635.9c16.9-11.5,34.2-23.3,52.9-31.8c0.7-0.3,1.5-0.6,2.1-1c-5.6,2.9-3.1,1.2-1.5,0.7 c1.2-0.5,2.5-0.9,3.7-1.3c1.4-0.5,5.5-2.3,7-1.7c-1.2-0.5-6.4,0.7-2.1,0.5c2.7-0.2,3.1,1.8-2.5-0.5c0.5,0.2,1.5,0.5,2,0.5 c1.5,0-3.8-1.6-3.7-1.6c0.5,0.2,0.9,0.5,1.3,0.7c1.2,0.8-5-4.2-2.3-1.7c2.3,2.2-3.1-5.1-1.7-2.2c0.2,0.5,0.6,1.3,1,1.8 c-3.2-4.3-1.8-4.8-0.9-1.9c0.5,1.6,0.7,3.2,1.1,4.9c0.5,2.3-0.7-6.7-0.3-2c0.1,1.2,0.2,2.4,0.3,3.6c0.3,4.7,0.4,9.5,0.4,14.3 c0,2.5,0.1,5.1,0.2,7.6c0,1.1-0.1,2.5,0.1,3.6c-1-4.9,1.2-5.5,0.3-3.1c-0.2,0.7-0.4,1.4-0.6,2.1c-0.5,1.6-3.2,7.5-0.4,1.4 c-1,2.1-1.9,4.3-2.8,6.5c-2.7,6.3-5.5,12.6-8,19c-5,12.8-8.3,26.1-9.1,39.9c-0.5,10.4,9.6,20.4,19.9,19.9 c11.3-0.5,19.4-8.8,19.9-19.9c0.1-1.3-0.1-3.4,0.3-4.6c-1.7,4.5-0.1,0.6,0.2-0.9c0.5-2.6,1.1-5.1,1.7-7.7 c1.6-6,3.6-11.8,5.9-17.5c0.5-1.3,1-2.8,1.6-4.1c-2.2,4.2-0.6,1.4-0.1,0.2c0.9-2.2,1.9-4.3,2.8-6.5c2.2-5,4.5-9.9,6.3-15.1 c2.2-6.5,1.6-13.3,1.5-20c-0.1-5.2-0.1-10.4-0.5-15.6c-0.8-11.8-2.9-23.8-11.8-32.4c-10.9-10.6-27.3-9.6-40.6-4.6 c-22.9,8.6-43.6,22.7-63.8,36.4c-8.6,5.9-13.3,17.8-7.2,27.3C249.8,637.3,262.3,642.2,271.6,635.9L271.6,635.9z"></path> </g> </g> <g> <g> <path class="st8" d="M344.3,690c-8.8,6.9-26.3,4.9-32.3-4.8c-0.4,5.1-0.7,10.3-0.8,15.4c-0.6,20.9,31.9,22.8,32.6,1.8 C343.8,698.3,344.1,694.1,344.3,690z"></path> </g> </g> <path class="st9" d="M303.6,681.5l-0.4,14.4c0,0.6,0.1,1.2,0.5,1.7c2,3.1,10,13.4,25.8,11.5c13.8-1.7,21.4-5.6,24.3-7.4 c0.9-0.6,1.4-1.6,1.4-2.7l-0.5-14.8c-0.1-2.2-2.4-3.6-4.4-2.6c-7.2,3.7-23,9-42-2.7C306.3,677.8,303.7,679.1,303.6,681.5z"></path> </g> <g> <path class="st10" d="M239.2,613.7L239.2,613.7c1.8,3.9-5.5-14.6-2.6-11.4c6,6.7,38.9,47.2,47.5,50c10.3,3.3-16.6-20.7-16.6-20.7 s86.1-50.3,84.3-52.8c-14.2-19.4-27.6-25.5-54.8-14.9C266.1,575.9,230.5,595,239.2,613.7z"></path> </g> <g> <path class="st4" d="M416.9,746.9c-0.8,0.6-13,5.4-13.7,6c-1.2,0.9-4.8,3.3-6.9,4.5c-4.5,2.7-14.5,13.5-28.4,4.1 c-20.3-13.8,33.7-43.4,33.7-43.4l23.6-9.8c2.9-1.2,6.2-0.9,8.9,0.8l0,0c5.1,3.1,6.6,9.8,3.3,14.6 C431.7,731.7,431,736.7,416.9,746.9z"></path> <path class="st5" d="M415.1,740.3c-0.8,0.6-13,5.4-13.7,6c-1.2,0.9-4.8,3.3-6.9,4.5c-4.5,2.7-14.5,13.5-28.4,4.1 c-20.3-13.8,33.7-43.4,33.7-43.4l23.6-9.8c2.9-1.2,6.2-0.9,8.9,0.8l0,0c5.1,3.1,6.6,9.8,3.3,14.6 C429.9,725.1,429.2,730.1,415.1,740.3z"></path> <path class="st6" d="M430.6,725.3c1.4-2.2,3.5-6.3,5.3-8.8c3.3-4.7,1.5-11-3.6-14.1c-2.7-1.7-6.1-2-8.9-0.8l-11.5,4.8 C418.1,709.4,425.2,715.7,430.6,725.3z"></path> <g> <g> <path class="st7" d="M309.3,661.9c16.3-11.8,32.6-23.9,50.1-34.1c2.6-1.5,5.3-3,8-4.3c0.6-0.3,1.3-0.6,1.9-0.9 c2.6-1.3-2.7,1.1-2.6,1.1c1.3-0.4,2.6-1,4-1.4c0.9-0.3,1.8-0.4,2.7-0.7c3.3-0.9-6.1,0.5-2.4,0.3c2.4-0.1,4.3,1.1-2.6-0.5 c4,0.9-4.9-2.7-2.1-1c2,1.2-4.8-4.3-2.3-1.7c2.1,2.1-3.5-5-1.7-2.1c2.2,3.5-1.2-4.1-0.8-2.1c0.2,1,0.6,2,0.8,3 c1.1,4.5-0.4-4.6-0.2-1.7c0.1,1.2,0.2,2.5,0.3,3.7c0.1,2.9,0.1,5.9,0,8.8c-0.4,11.8-0.2,23.6-0.2,35.4c0.1,19.5,0.3,39.1-1,58.5 c-0.7,10.4,9.7,20.4,19.9,19.9c11.4-0.5,19.1-8.8,19.9-19.9c2.2-31.6,0.4-63.3,1.2-94.9c0.4-13.2-0.8-28.3-11.2-37.8 c-13.1-12-30.5-7.1-44.6-0.1c-20.4,10.2-38.9,24.7-57.3,38c-8.4,6.1-13.4,17.6-7.2,27.3C287.4,663.1,300.3,668.5,309.3,661.9 L309.3,661.9z"></path> </g> </g> <g> <g> <path class="st8" d="M397.7,718.9c-9.1,6.6-26.4,4.1-32.2-5.8c-0.6,5.1-1,10.3-1.4,15.4c-1.3,20.9,31.2,23.8,32.5,2.9 C397,727.2,397.3,723,397.7,718.9z"></path> </g> </g> <path class="st9" d="M357.3,709l-0.9,14.4c0,0.6,0.1,1.2,0.4,1.8c1.9,3.1,9.6,13.7,25.4,12.3c13.9-1.2,21.6-4.9,24.5-6.6 c0.9-0.5,1.5-1.5,1.5-2.6l-0.1-14.8c0-2.2-2.3-3.7-4.3-2.7c-7.3,3.5-23.3,8.2-41.8-4.1C360.1,705.5,357.5,706.7,357.3,709z"></path> </g> <path class="st11" d="M381.9,787.4l0.4-0.1c2.9-0.4,5-3.2,4.5-6.1l-20.9-141.1c-0.4-2.9-3.2-5-6.1-4.5l-0.4,0.1 c-2.9,0.4-5,3.2-4.5,6.1l20.9,141.1C376.2,785.8,378.9,787.8,381.9,787.4z"></path> <path class="st2" d="M121,606.5l-1.7-0.2c-2.7-0.4-4.6-2.9-4.2-5.6l30.5-205.4c0.4-2.7,2.9-4.6,5.6-4.2l1.7,0.2 c2.7,0.4,4.6,2.9,4.2,5.6l-30.5,205.4C126.2,605,123.7,606.9,121,606.5z"></path> <g> <rect x="102.8" y="409.5" class="st12" width="37" height="21.5"></rect> <rect x="775" y="546.8" class="st12" width="37" height="21.5"></rect> <path class="st12" d="M564.1,701.9L107.5,438.3c-7.2-4.1-6.3-11.4,2-16.1l213.1-123c8.3-4.8,20.8-5.3,27.9-1.2l456.6,263.6 c7.2,4.1,6.3,11.4-2,16.1L592,700.7C583.8,705.5,571.3,706,564.1,701.9z"></path> <path class="st13" d="M564.1,681.3L107.5,417.7c-7.2-4.1-6.3-11.4,2-16.1l213.1-123c8.3-4.8,20.8-5.3,27.9-1.2L807.1,541 c7.2,4.1,6.3,11.4-2,16.1L592,680.1C583.8,684.9,571.3,685.4,564.1,681.3z"></path> </g> <path class="st14" d="M239.6,562.4l-94.5,73c-15.4,9.5-27,0.1-27-16.2l-1.8-26.4c0-16.2,12.7-37.3,28.1-46.7l95.3-58.4 c15.4-9.5,28.1-3.9,28,12.3v15.6C267.7,531.9,255.1,552.9,239.6,562.4z"></path> <path class="st11" d="M117,794L117,794c-3.1-0.5-5.2-3.3-4.7-6.4L138.6,610c0.5-3.1,3.3-5.2,6.4-4.7l0,0c3.1,0.5,5.2,3.3,4.7,6.4 l-26.3,177.6C122.9,792.4,120.1,794.5,117,794z"></path> <path class="st11" d="M241.5,869.6L241.5,869.6c-3.2-0.5-5.3-3.4-4.9-6.6l29.7-200.3c0.5-3.2,3.4-5.3,6.6-4.9l0,0 c3.2,0.5,5.3,3.4,4.9,6.6l-29.7,200.3C247.6,867.9,244.7,870.1,241.5,869.6z"></path> <path class="st15" d="M265.4,727.6l-119.6-69c-12.9-7.4-20-22.2-20-22.2c-4.8-11,6.7-19,19.5-11.6l125.7,74 c12.9,7.4,17.7,15.2,15.6,24.4C286.7,723.2,281.7,736,265.4,727.6z"></path> <path class="st12" d="M504.7,486.1l-133-76.8c-0.8-0.4-1.7-0.4-2.5,0l-40.4,23.8c-1.6,0.9-1.6,3.3,0,4.2l132.5,76.5 c0.8,0.4,1.7,0.4,2.4,0l40.8-23.6C506.3,489.4,506.3,487,504.7,486.1z"></path> <g> <path class="st16" d="M463.9,508.6l-132.5-76.5c-1.6-0.9-1.6-3.3,0-4.2l40.4-23.8c0.8-0.4,1.7-0.5,2.5,0l133,76.8 c1.6,0.9,1.6,3.3,0,4.2l-40.8,23.6C465.6,509.1,464.7,509.1,463.9,508.6z"></path> <path class="st12" d="M378.3,416c-0.2,0.1-0.7,0.1-1-0.1l-8.9-5.2c-0.3-0.2-0.4-0.4-0.2-0.6l5.9-3.4c0.2-0.1,0.7-0.1,1,0.1 l8.9,5.2c0.3,0.2,0.4,0.4,0.2,0.6L378.3,416z"></path> <path class="st12" d="M388.7,431.4c-0.2,0.1-0.6,0.1-1-0.1l-8.9-5.2c-0.3-0.2-0.4-0.4-0.2-0.6l5.9-3.4c0.2-0.1,0.6-0.1,1,0.1 l8.9,5.2c0.3,0.2,0.4,0.4,0.2,0.6L388.7,431.4z"></path> <path class="st12" d="M383.4,437.8c-0.2,0.1-0.6,0.1-1-0.1l-8.9-5.2c-0.3-0.2-0.4-0.4-0.2-0.6l5.9-3.4c0.2-0.1,0.7-0.1,1,0.1 l8.9,5.2c0.3,0.2,0.4,0.4,0.2,0.6L383.4,437.8z"></path> <path class="st12" d="M369.2,439c-0.2,0.1-0.6,0.1-1-0.1l-8.9-5.2c-0.3-0.2-0.4-0.4-0.2-0.6l5.9-3.4c0.2-0.1,0.7-0.1,1,0.1 l8.9,5.2c0.3,0.2,0.4,0.4,0.2,0.6L369.2,439z"></path> <path class="st12" d="M360.1,444.3c-0.2,0.1-0.7,0-1.2-0.2l-11.7-6.8c-0.4-0.2-0.6-0.5-0.4-0.7l7-4c0.2-0.1,0.7,0,1.2,0.2 l11.7,6.8c0.4,0.2,0.6,0.5,0.4,0.7L360.1,444.3z"></path> <path class="st12" d="M437,488.8c-0.2,0.1-0.6,0-0.9-0.2l-8.9-5.2c-0.3-0.2-0.4-0.4-0.3-0.5l2.6-1.5c0.2-0.1,0.6,0,0.9,0.2 l8.9,5.2c0.3,0.2,0.4,0.4,0.3,0.5L437,488.8z"></path> <path class="st12" d="M449,495.9c-0.2,0.1-0.6,0-0.9-0.2l-8.9-5.2c-0.3-0.2-0.4-0.4-0.3-0.5l2.6-1.5c0.2-0.1,0.6,0,0.9,0.2 l8.9,5.2c0.3,0.2,0.4,0.4,0.3,0.5L449,495.9z"></path> <path class="st12" d="M461.6,503c-0.2,0.1-0.6,0-0.9-0.2l-8.9-5.2c-0.3-0.2-0.4-0.4-0.3-0.5l2.5-1.4c0.2-0.1,0.6,0,0.9,0.2 l8.9,5.2c0.3,0.2,0.4,0.4,0.3,0.5L461.6,503z"></path> <path class="st12" d="M453.8,493.2c-0.2,0.1-0.6,0-0.9-0.2l-8.9-5.2c-0.3-0.2-0.4-0.4-0.3-0.5l2.5-1.4c0.2-0.1,0.6,0,0.9,0.2 l8.9,5.2c0.3,0.2,0.4,0.4,0.3,0.5L453.8,493.2z"></path> <path class="st12" d="M421.6,479.8c-0.2,0.1-0.7,0.1-1-0.1l-58.2-33.6c-0.3-0.2-0.4-0.4-0.2-0.6l7-4c0.2-0.1,0.7-0.1,1,0.1 l58.2,33.6c0.3,0.2,0.4,0.4,0.2,0.6L421.6,479.8z"></path> <path class="st12" d="M415.6,474.7c0,0-0.2-0.1-0.5-0.3l-46.3-26.7c-0.3-0.1-0.5-0.3-0.4-0.3l0.4-0.2c0,0,0.2,0.1,0.5,0.3 l46.3,26.7c0.3,0.1,0.5,0.3,0.4,0.3L415.6,474.7z"></path> <path class="st12" d="M381.5,446.1c-0.2,0.1-0.6,0.1-1-0.1l-8.9-5.2c-0.3-0.2-0.4-0.4-0.2-0.6l5.9-3.4c0.2-0.1,0.7-0.1,1,0.1 l8.9,5.2c0.3,0.2,0.4,0.4,0.2,0.6L381.5,446.1z"></path> <path class="st12" d="M393.8,453.2c-0.2,0.1-0.7,0.1-1-0.1l-8.9-5.2c-0.3-0.2-0.4-0.4-0.2-0.6l5.9-3.4c0.2-0.1,0.7-0.1,1,0.1 l8.9,5.2c0.3,0.2,0.4,0.4,0.2,0.6L393.8,453.2z"></path> <path class="st12" d="M406.1,460.3c-0.2,0.1-0.6,0.1-1-0.1l-8.9-5.2c-0.3-0.2-0.4-0.4-0.2-0.6l5.9-3.4c0.2-0.1,0.7-0.1,1,0.1 l8.9,5.2c0.3,0.2,0.4,0.4,0.2,0.6L406.1,460.3z"></path> <path class="st12" d="M418.4,467.4c-0.2,0.1-0.6,0.1-1-0.1l-8.9-5.2c-0.3-0.2-0.4-0.4-0.2-0.6l5.9-3.4c0.2-0.1,0.7-0.1,1,0.1 l8.9,5.2c0.3,0.2,0.4,0.4,0.2,0.6L418.4,467.4z"></path> <path class="st12" d="M430.8,474.5c-0.2,0.1-0.7,0.1-1-0.1l-8.9-5.2c-0.3-0.2-0.4-0.4-0.2-0.6l5.9-3.4c0.2-0.1,0.7-0.1,1,0.1 l8.9,5.2c0.3,0.2,0.4,0.4,0.2,0.6L430.8,474.5z"></path> <path class="st12" d="M443.1,481.6c-0.2,0.1-0.7,0.1-1-0.1l-8.9-5.2c-0.3-0.2-0.4-0.4-0.2-0.6l5.9-3.4c0.2-0.1,0.7-0.1,1,0.1 l8.9,5.2c0.3,0.2,0.4,0.4,0.2,0.6L443.1,481.6z"></path> <path class="st12" d="M470.8,497.6c-0.2,0.1-0.6,0.1-1-0.1l-24.4-14.1c-0.3-0.2-0.4-0.4-0.2-0.6l5.9-3.4c0.2-0.1,0.7-0.1,1,0.1 l24.4,14.1c0.3,0.2,0.4,0.4,0.2,0.6L470.8,497.6z"></path> <path class="st12" d="M395.7,444.9c-0.2,0.1-0.6,0.1-1-0.1l-8.9-5.2c-0.3-0.2-0.4-0.4-0.2-0.6l5.9-3.4c0.2-0.1,0.6-0.1,1,0.1 l8.9,5.2c0.3,0.2,0.4,0.4,0.2,0.6L395.7,444.9z"></path> <path class="st12" d="M408,452c-0.2,0.1-0.6,0.1-1-0.1l-8.9-5.2c-0.3-0.2-0.4-0.4-0.2-0.6l5.9-3.4c0.2-0.1,0.6-0.1,1,0.1l8.9,5.2 c0.3,0.2,0.4,0.4,0.2,0.6L408,452z"></path> <path class="st12" d="M420.3,459.1c-0.2,0.1-0.7,0.1-1-0.1l-8.9-5.2c-0.3-0.2-0.4-0.4-0.2-0.6l5.9-3.4c0.2-0.1,0.7-0.1,1,0.1 l8.9,5.2c0.3,0.2,0.4,0.4,0.2,0.6L420.3,459.1z"></path> <path class="st12" d="M432.6,466.2c-0.2,0.1-0.6,0.1-1-0.1l-8.9-5.2c-0.3-0.2-0.4-0.4-0.2-0.6l5.9-3.4c0.2-0.1,0.6-0.1,1,0.1 l8.9,5.2c0.3,0.2,0.4,0.4,0.2,0.6L432.6,466.2z"></path> <path class="st12" d="M444.9,473.3c-0.2,0.1-0.6,0.1-1-0.1L435,468c-0.3-0.2-0.4-0.4-0.2-0.6l5.9-3.4c0.2-0.1,0.6-0.1,1,0.1 l8.9,5.2c0.3,0.2,0.4,0.4,0.2,0.6L444.9,473.3z"></path> <path class="st12" d="M457.3,480.4c-0.2,0.1-0.6,0.1-1-0.1l-8.9-5.2c-0.3-0.2-0.4-0.4-0.2-0.6l5.9-3.4c0.2-0.1,0.6-0.1,1,0.1 l8.9,5.2c0.3,0.2,0.4,0.4,0.2,0.6L457.3,480.4z"></path> <path class="st12" d="M469.6,487.5c-0.2,0.1-0.6,0.1-1-0.1l-8.9-5.2c-0.3-0.2-0.4-0.4-0.2-0.6l5.9-3.4c0.2-0.1,0.6-0.1,1,0.1 l8.9,5.2c0.3,0.2,0.4,0.4,0.2,0.6L469.6,487.5z"></path> <path class="st12" d="M400.9,438.5c-0.2,0.1-0.7,0.1-1-0.1l-8.9-5.2c-0.3-0.2-0.4-0.4-0.2-0.6l5.9-3.4c0.2-0.1,0.6-0.1,1,0.1 l8.9,5.2c0.3,0.2,0.4,0.4,0.2,0.6L400.9,438.5z"></path> <path class="st12" d="M413.2,445.6c-0.2,0.1-0.7,0.1-1-0.1l-8.9-5.2c-0.3-0.2-0.4-0.4-0.2-0.6l5.9-3.4c0.2-0.1,0.6-0.1,1,0.1 l8.9,5.2c0.3,0.2,0.4,0.4,0.2,0.6L413.2,445.6z"></path> <path class="st12" d="M425.6,452.7c-0.2,0.1-0.7,0.1-1-0.1l-8.9-5.2c-0.3-0.2-0.4-0.4-0.2-0.6l5.9-3.4c0.2-0.1,0.6-0.1,1,0.1 l8.9,5.2c0.3,0.2,0.4,0.4,0.2,0.6L425.6,452.7z"></path> <path class="st12" d="M437.9,459.8c-0.2,0.1-0.6,0.1-1-0.1l-8.9-5.2c-0.3-0.2-0.4-0.4-0.2-0.6l5.9-3.4c0.2-0.1,0.6-0.1,1,0.1 l8.9,5.2c0.3,0.2,0.4,0.4,0.2,0.6L437.9,459.8z"></path> <path class="st12" d="M450.2,466.9c-0.2,0.1-0.7,0.1-1-0.1l-8.9-5.2c-0.3-0.2-0.4-0.4-0.2-0.6l5.9-3.4c0.2-0.1,0.6-0.1,1,0.1 l8.9,5.2c0.3,0.2,0.4,0.4,0.2,0.6L450.2,466.9z"></path> <path class="st12" d="M462.5,474c-0.2,0.1-0.7,0.1-1-0.1l-8.9-5.2c-0.3-0.2-0.4-0.4-0.2-0.6l5.9-3.4c0.2-0.1,0.6-0.1,1,0.1 l8.9,5.2c0.3,0.2,0.4,0.4,0.2,0.6L462.5,474z"></path> <path class="st12" d="M474.8,481.1c-0.2,0.1-0.7,0.1-1-0.1l-8.9-5.2c-0.3-0.2-0.4-0.4-0.2-0.6l5.9-3.4c0.2-0.1,0.6-0.1,1,0.1 l8.9,5.2c0.3,0.2,0.4,0.4,0.2,0.6L474.8,481.1z"></path> <path class="st12" d="M376.4,424.3c-0.2,0.1-0.7,0.1-1-0.1l-15.2-8.7c-0.3-0.2-0.4-0.4-0.2-0.6l5.9-3.4c0.2-0.1,0.6-0.1,1,0.1 l15.2,8.7c0.3,0.2,0.4,0.4,0.2,0.6L376.4,424.3z"></path> <path class="st12" d="M495.3,483.5c-0.2,0.1-0.7,0.1-1-0.1l-15.2-8.7c-0.3-0.2-0.4-0.4-0.2-0.6l5.9-3.4c0.2-0.1,0.7-0.1,1,0.1 l15.2,8.7c0.3,0.2,0.4,0.4,0.2,0.6L495.3,483.5z"></path> <path class="st12" d="M371.1,430.7c-0.2,0.1-0.6,0.1-1-0.1L352,420.2c-0.3-0.2-0.4-0.4-0.2-0.6l5.9-3.4c0.2-0.1,0.6-0.1,1,0.1 l18.1,10.4c0.3,0.2,0.4,0.4,0.2,0.6L371.1,430.7z"></path> <path class="st12" d="M356.9,431.9c-0.2,0.1-0.6,0.1-1-0.1l-12.1-7c-0.3-0.2-0.4-0.4-0.2-0.6l5.9-3.4c0.2-0.1,0.7-0.1,1,0.1 l12.1,7c0.3,0.2,0.4,0.4,0.2,0.6L356.9,431.9z"></path> <path class="st12" d="M390.6,423.1c-0.2,0.1-0.6,0.1-1-0.1l-8.9-5.2c-0.3-0.2-0.4-0.4-0.2-0.6l5.9-3.4c0.2-0.1,0.7-0.1,1,0.1 l8.9,5.2c0.3,0.2,0.4,0.4,0.2,0.6L390.6,423.1z"></path> <path class="st12" d="M402.9,430.2c-0.2,0.1-0.7,0.1-1-0.1l-8.9-5.2c-0.3-0.2-0.4-0.4-0.2-0.6l5.9-3.4c0.2-0.1,0.7-0.1,1,0.1 l8.9,5.2c0.3,0.2,0.4,0.4,0.2,0.6L402.9,430.2z"></path> <path class="st12" d="M415.2,437.3c-0.2,0.1-0.6,0.1-1-0.1l-8.9-5.2c-0.3-0.2-0.4-0.4-0.2-0.6l5.9-3.4c0.2-0.1,0.7-0.1,1,0.1 l8.9,5.2c0.3,0.2,0.4,0.4,0.2,0.6L415.2,437.3z"></path> <path class="st12" d="M427.5,444.4c-0.2,0.1-0.7,0.1-1-0.1l-8.9-5.2c-0.3-0.2-0.4-0.4-0.2-0.6l5.9-3.4c0.2-0.1,0.6-0.1,1,0.1 l8.9,5.2c0.3,0.2,0.4,0.4,0.2,0.6L427.5,444.4z"></path> <path class="st12" d="M439.8,451.5c-0.2,0.1-0.6,0.1-1-0.1l-8.9-5.2c-0.3-0.2-0.4-0.4-0.2-0.6l5.9-3.4c0.2-0.1,0.6-0.1,1,0.1 l8.9,5.2c0.3,0.2,0.4,0.4,0.2,0.6L439.8,451.5z"></path> <path class="st12" d="M452.1,458.6c-0.2,0.1-0.7,0.1-1-0.1l-8.9-5.2c-0.3-0.2-0.4-0.4-0.2-0.6l5.9-3.4c0.2-0.1,0.6-0.1,1,0.1 l8.9,5.2c0.3,0.2,0.4,0.4,0.2,0.6L452.1,458.6z"></path> <path class="st12" d="M464.4,465.7c-0.2,0.1-0.7,0.1-1-0.1l-8.9-5.2c-0.3-0.2-0.4-0.4-0.2-0.6l5.9-3.4c0.2-0.1,0.7-0.1,1,0.1 l8.9,5.2c0.3,0.2,0.4,0.4,0.2,0.6L464.4,465.7z"></path> <path class="st12" d="M476.7,472.8c-0.2,0.1-0.6,0.1-1-0.1l-8.9-5.2c-0.3-0.2-0.4-0.4-0.2-0.6l5.9-3.4c0.2-0.1,0.6-0.1,1,0.1 l8.9,5.2c0.3,0.2,0.4,0.4,0.2,0.6L476.7,472.8z"></path> <path class="st12" d="M483.9,479.1c-0.1-0.1-0.3-0.1-0.5-0.2c-0.2,0-0.3,0-0.4,0.1l-5.9,3.4c-0.1,0.1-0.1,0.1-0.1,0.3 c0,0.1,0.1,0.2,0.3,0.3l2.3,1.3l-7.8,4.5c-0.1,0.1-0.1,0.2-0.1,0.3s0.1,0.2,0.3,0.3l6,3.5c0.2,0.1,0.3,0.2,0.5,0.2s0.3,0,0.4-0.1 l14.1-8.1c0.1-0.1,0.1-0.1,0.1-0.3c0-0.1-0.1-0.2-0.3-0.3L483.9,479.1z"></path> </g> <g> <g> <path class="st17" d="M185.9,457.9c7.4,10.1,14.9,20.2,23.1,29.7c4,4.6,8.6,9.8,14.7,11.7c8.1,2.5,16-2.3,18.5-10.2 c1.1-3.5,1-7.4,1.2-11.1c0-0.8,0.1-1.6,0.2-2.5c0.2-3.4-0.8,3.1-0.1,0.5c0.2-0.6,0.3-1.3,0.4-2c0.8-3.5-1.2,2.1-0.2,0.2 c1.5-2.7-2.2,2.3-0.5,0.6c1.3-1.3-3,2.1-1.4,1.1c0.9-0.6,2.5-0.9-1.7,0.7c2.9-1-2.2-0.3-0.9,0c2.4,0.5,5.4,0.1,7.8-0.1 c22.9-1.4,43.7-11.3,62.8-23.2c9-5.6,17.7-11.6,26.9-16.9c2-1.2,4.1-2.3,6.2-3.3c0.8-0.4,1.7-0.8,2.5-1.2c-3.3,1.5,0.3-0.1,1-0.3 c1.8-0.6,3.6-1,5.4-1.4c-3.7,0.8-1.5,0.1-0.5,0.2s4.4,0.4,0.1-0.2c6.8,1,13.8-1.7,15.8-9c1.7-6.1-2.1-14.7-9-15.8 c-17.7-2.7-33.1,7.5-47.3,16.6c-8.3,5.3-16.6,10.8-25.2,15.5c-9.9,5.5-16.7,8.6-27.5,11.3c-5.6,1.4-7.5,1.7-12.5,1.9 c-4.1,0.2-8.1-0.3-12.1,0.8c-6.9,2-11.7,7.3-14.1,13.9c-1.4,3.9-1.7,8.1-1.9,12.2c-0.1,1.5-0.2,2.9-0.2,4.4 c-0.1,3,0.4-2.3,0.2-1.4c-0.6,2.7,0.5-0.8,0.7-1.2c1.6-2.7,5.5-5.4,9.7-5.4c4,0,3.9,0.7,2.6,0.3c3.9,1.2,3,1.4,1.7,0.6 c-1.6-0.9,0.9-0.5,1.3,1c-0.1-0.4-1.3-1.1-1.5-1.4c-1-0.9-1.9-1.9-2.8-2.9c-8.2-8.9-14.1-17.3-21.3-27 c-4.1-5.6-11.1-8.4-17.6-4.6C185,443.5,181.8,452.3,185.9,457.9L185.9,457.9z"></path> </g> </g> <ellipse transform="matrix(5.333930e-03 -1 1 5.333930e-03 53.2687 1061.7255)" class="st12" cx="560.3" cy="504.1" rx="14.3" ry="24.7"></ellipse> <ellipse transform="matrix(3.835136e-03 -1 1 3.835136e-03 156.3063 1229.1631)" class="st12" cx="695.1" cy="536.1" rx="12.5" ry="21.7"></ellipse> <g> <ellipse transform="matrix(5.420038e-03 -1 1 5.420038e-03 46.835 1052.2046)" class="st18" cx="552.4" cy="502.6" rx="12.6" ry="21.8"></ellipse> <polygon class="st18" points="570.6,503.1 530.5,502.9 530.5,467.3 570.6,467.6 "></polygon> <path class="st19" d="M562.3,467.5V500v1.3c0,5.5-2.8,6.4-7.1,8.9c-2.6,1.5-5.7,3.1-8.9,3.7c7.5,1.4,15.9-0.6,21.8-4 c4.3-2.5,6.4-4.4,6.3-9.9l0,0l-0.1-32.3L562.3,467.5z"></path> <ellipse transform="matrix(5.420686e-03 -1 1 5.420686e-03 81.8014 1017.3602)" class="st20" cx="552.3" cy="467.6" rx="12.6" ry="21.8"></ellipse> <path class="st21" d="M565.3,474.8c-7,4.1-18.4,4-25.5,0s-7.1-10.7-0.1-14.7c7-4.1,18.4-4,25.5,0 C572.3,464.2,572.3,470.8,565.3,474.8z"></path> <path class="st22" d="M565.2,466.4c-7.1-4.1-18.5-4.1-25.5,0c-2.1,1.2-3.5,2.6-4.4,4.2c0.9,1.5,2.3,3,4.5,4.2 c7.1,4.1,18.5,4.1,25.5,0c2.1-1.2,3.5-2.6,4.4-4.2C568.8,469.1,567.3,467.7,565.2,466.4z"></path> <path class="st23" d="M539.7,474.8c-2.1-1.2-3.5-2.6-4.4-4.2c0.5-0.9,1.2-1.7,2.1-2.5c6.1-1,12.9-0.2,17.7,2.6 c2.1,1.2,3.5,2.6,4.4,4.2c0.4,0.7,0.7,1.3,0.8,2c-1.1,0.3-2,0.5-2.9,0.6C551.3,478.5,544.5,477.6,539.7,474.8z"></path> <g> <g> <path class="st24" d="M566.6,482.6c3.1,1.6,6.6,2.8,7.7,6.6c0.8,2.5,0.2,6.1,0.2,8.7c0,2.1,0.6,7.6-1.8,7.6 c-1.3,0-3.6-1.7-4.8-2.3c-1.7-0.9-3.2,1.7-1.5,2.6c2.1,1.1,5.3,3.5,7.8,3.1c3.1-0.5,3.2-3.9,3.3-6.3c0.1-4.6,1-10.7-0.3-15.2 c-1.1-4-5.7-5.6-9.1-7.4C566.4,479.1,564.9,481.7,566.6,482.6L566.6,482.6z"></path> </g> </g> </g> <path class="st25" d="M183.9,433.1c-8.3,9-8,14.8-9,27.5c-1,12.4,6.4,23.6,18.1,27.5l116.9,39.1c0,0,32.7-45.4-5.7-61.9 c-20-8.6-33.5-20.4-48.4-30.8C233.7,419.1,203,412.4,183.9,433.1z"></path> <path class="st25" d="M172.5,633c-7.8-2.8-5.7-111.1,3.6-185.2l136.8,62.3c-12.1,64.1-12.1,112.8-6.7,189.2L172.5,633z"></path> <path class="st26" d="M312.9,510.2L290.2,500c-13.8,65.1-16.5,112.4-6.5,185.8l-0.4-0.1c0,4.3-3.2,8.9-9.4,12.5l0,0 c-11.1,6.5,5.2,9.9,16.3,3.3l29-57C312.9,581.9,297.4,595.2,312.9,510.2z"></path> <path class="st15" d="M387.2,667.7l-95.3,58.4c-15.4,9.5-27.4,5-26.5-9.9l0.8-14.3c0.9-14.9,14.2-34.8,29.6-44.2l95.3-58.4 c15.4-9.5,27.4-5,26.5,9.9l-0.8,14.3C415.9,638.4,402.6,658.3,387.2,667.7z"></path> <path class="st15" d="M124.8,630l-14.7-133.1c-2.9-19.4,14.1-24.7,36.7-11.5l90.4,52.7c16.3,9.5,31.3,26.3,37.5,41.9l34.2,86.4 c9.8,24.8-23.4,65.1-46.2,51.5L124.8,630z"></path> <path class="st24" d="M485.8,541.7l-18,12.3c-6.6,4.5-15.8,2.8-20.3-3.8l0,0c-4.5-6.6-2.8-15.8,3.8-20.3l18-12.3 c6.6-4.5,15.8-2.8,20.3,3.8l0,0C494.1,528,492.4,537.1,485.8,541.7z"></path> <g> <g> <path class="st17" d="M312.4,513.7c10.6,9.5,20.1,19.9,29.5,30.6c6.6,7.5,13.6,14.5,23.1,18.2c22.8,8.8,48.3-6.5,68-16.4 c13.7-6.9,25-13.2,39.1-16.7c16-4,9.2-28.7-6.8-24.7c-12.3,3-24,8.8-35.3,14.4c-6,2.9-11.9,6-17.8,8.9c-2.8,1.4-5.6,2.7-8.4,4 c-3.4,1.6-4.3,2-6.8,3c-4.7,1.9-9.5,3.3-14.5,4.4c-2.3,0.5,1.9,0.1-1,0c-1,0-1.9,0.1-2.9,0c-1.1,0-2.1-0.2-3.1-0.2 c2.4,0.1,1.3,0.2-0.2-0.2c-0.9-0.2-1.8-0.7-2.6-0.8c1.6,0.3,1.9,1,0.3,0c-0.7-0.4-1.3-0.7-2-1.2c-1.3-0.9-2.4-2.2-0.6-0.3 c-2.9-3-6-5.7-8.8-8.8c-9.9-11.1-19.8-22.2-30.9-32.2c-5.2-4.6-13.1-5.1-18.1,0C307.7,500.3,307.2,509.1,312.4,513.7L312.4,513.7 z"></path> </g> </g> <g> <path class="st25" d="M288.4,502l49.1,47.9c16,11.7,36.9-17.7,24.5-28.4l-47.8-50c-7.9-6.8-18.7-6.8-24.8,0.1l0,0 C283.1,478.7,281,493.8,288.4,502z"></path> <g> <g> <path class="st27" d="M330.1,542.5c13.6-4.5,22.9-12.1,27.2-26.1c1.6-5.2-6.5-7.4-8.1-2.2c-3.5,11.2-10.6,16.7-21.4,20.3 C322.8,536.1,325,544.2,330.1,542.5L330.1,542.5z"></path> </g> </g> </g> <path class="st12" d="M407,359.9L407,359.9c0-0.5-0.3-1-0.9-1.4l-23.2-13.4c-1.4-0.8-3.8-0.7-5.4,0.2l-41.9,24.2 c-0.8,0.5-1.3,1.1-1.3,1.7l0,0l0.1,2.3l0,0c-0.2,0.7,0.1,1.3,0.9,1.8l23.2,13.4c0.7,0.4,1.6,0.6,2.6,0.5c1,0,2-0.3,2.8-0.8 l41.9-24.2c0.9-0.5,1.3-1.1,1.3-1.7l0,0L407,359.9z"></path> <g> <linearGradient id="SVGID_1_" gradientUnits="userSpaceOnUse" x1="324.7946" y1="-224.8732" x2="327.7903" y2="-224.8732" gradientTransform="matrix(1 0 0 1 5.9476 595.9249)"> <stop offset="3.940890e-02" style="stop-color:#FFFFFF"></stop> <stop offset="0.3172" style="stop-color:#FCFDFE"></stop> <stop offset="0.5068" style="stop-color:#F3F7FB"></stop> <stop offset="0.6701" style="stop-color:#E4EDF7"></stop> <stop offset="0.8186" style="stop-color:#CEDEF0"></stop> <stop offset="0.9556" style="stop-color:#B3CBE8"></stop> <stop offset="1" style="stop-color:#A8C4E5"></stop> </linearGradient> <path class="st28" d="M330.9,371.4l-0.1-2.3l3,1.9c0,0-0.8,2.1-0.9,2C332.8,373,330.9,371.4,330.9,371.4z"></path> <linearGradient id="SVGID_2_" gradientUnits="userSpaceOnUse" x1="324.8162" y1="-229.8749" x2="397.5886" y2="-229.8749" gradientTransform="matrix(1 0 0 1 5.9476 595.9249)"> <stop offset="3.940890e-02" style="stop-color:#FFFFFF"></stop> <stop offset="0.3172" style="stop-color:#FCFDFE"></stop> <stop offset="0.5068" style="stop-color:#F3F7FB"></stop> <stop offset="0.6701" style="stop-color:#E4EDF7"></stop> <stop offset="0.8186" style="stop-color:#CEDEF0"></stop> <stop offset="0.9556" style="stop-color:#B3CBE8"></stop> <stop offset="1" style="stop-color:#A8C4E5"></stop> </linearGradient> <path class="st29" d="M354.9,386.5l-23.2-13.4c-1.4-0.8-1.2-2.2,0.4-3.1l41.9-24.2c1.6-0.9,4-1,5.4-0.2l23.2,13.4 c1.4,0.8,1.2,2.2-0.4,3.1l-41.9,24.2C358.7,387.2,356.3,387.3,354.9,386.5z"></path> <path class="st30" d="M357.4,373.7l16.6-27.9c1.6-0.9,4-1,5.4-0.2l23.2,13.4c1.4,0.8,1.2,2.2-0.4,3.1l-41.9,24.2 c-0.8,0.5-1.8,0.7-2.8,0.8L357.4,373.7z"></path> <polygon class="st31" points="375.7,364.4 379.9,358.7 403.6,357.7 403.6,360.4 377.7,368.6 "></polygon> <path class="st24" d="M334.1,373c0,0.4-0.3,0.6-0.6,0.4c-0.4-0.2-0.6-0.7-0.6-1.1s0.3-0.6,0.6-0.4S334.1,372.6,334.1,373z"></path> <path class="st24" d="M354.9,383.9l-23.2-13.4c-1.4-0.8-1.2-2.2,0.4-3.1l41.9-24.2c1.6-0.9,4-1,5.4-0.2l23.2,13.4 c1.4,0.8,1.2,2.2-0.4,3.1l-41.9,24.2C358.7,384.6,356.3,384.7,354.9,383.9z"></path> <path class="st22" d="M391.8,352.4l-6.4-3.7c-0.3-0.2-0.2-0.4,0.1-0.6l0,0c0.3-0.2,0.8-0.2,1,0l6.4,3.7c0.3,0.2,0.2,0.4-0.1,0.6 l0,0C392.6,352.5,392.1,352.5,391.8,352.4z"></path> <path class="st24" d="M345.4,380.2l-5.1-3c-0.2-0.1-0.4-0.5-0.4-0.8l0,0c0-0.3,0.2-0.4,0.4-0.3l5.1,3c0.2,0.1,0.4,0.5,0.4,0.8l0,0 C345.8,380.2,345.6,380.3,345.4,380.2z"></path> <path class="st22" d="M396.3,364.3l2.5-1.5c0.2-0.1,0.3-0.3,0.3-0.5l0,0c0-0.2-0.1-0.3-0.3-0.2l-2.5,1.5c-0.2,0.1-0.3,0.3-0.3,0.5 l0,0C396,364.3,396.1,364.4,396.3,364.3z"></path> <path class="st22" d="M392.7,366.6l2.5-1.5c0.2-0.1,0.3-0.3,0.3-0.5l0,0c0-0.2-0.1-0.3-0.3-0.2l-2.5,1.5c-0.2,0.1-0.3,0.3-0.3,0.5 l0,0C392.4,366.6,392.6,366.7,392.7,366.6z"></path> <path class="st22" d="M348.2,375.5c-1.1,0.6-2.8,0.6-3.9,0s-1.1-1.6,0-2.3c1.1-0.6,2.8-0.6,3.9,0 C349.3,373.9,349.3,374.9,348.2,375.5z"></path> <path class="st32" d="M375.4,344.6L340.1,365c-0.8,0.5-0.8,1.7,0,2.1l21.4,12.4c0.4,0.2,0.9,0.2,1.2,0L398,359 c0.8-0.5,0.8-1.7,0-2.1l-21.4-12.4C376.2,344.3,375.7,344.3,375.4,344.6z"></path> </g> <g> <ellipse transform="matrix(5.419849e-03 -1 1 5.419849e-03 148.9886 1210.5521)" class="st33" cx="683.1" cy="530.4" rx="13.8" ry="24"></ellipse> <polygon class="st33" points="647.9,496.8 659.2,531.4 706.8,532.1 717.7,498.8 "></polygon> <path class="st34" d="M704.2,499l-10.9,34l0,0c-0.6,2-2.9,5.4-6.8,7.6c-2.8,1.6-6.2,2.6-9.8,3.2c8.1,1.4,17,0.5,23.3-3.2 c3.9-2.3,6.2-5.7,6.8-7.7l0,0l10.9-34h-13.5V499z"></path> <ellipse transform="matrix(5.422195e-03 -1 1 5.422195e-03 184.7759 1174.9332)" class="st35" cx="683" cy="494.6" rx="20.4" ry="35.4"></ellipse> <ellipse transform="matrix(5.424385e-03 -1 1 5.424385e-03 185.1865 1173.9673)" class="st36" cx="682.8" cy="493.9" rx="17.5" ry="30.4"></ellipse> <g> <path class="st37" d="M659.6,486.9L659.6,486.9c-1.5-1.9-2.8-4.1-3-6.5s0.8-5.1,3-6.1c2.6-1.2,5.6,0.3,7.6,2.3s3.4,4.5,5.6,6.4 c-2.8-8.7-5.5-17.4-8.3-26.2c-0.8-2.6-1.7-5.4-1.1-8.2c0.6-2.7,3.1-5.3,5.8-4.8c5.3,0.9,4.5,9.8,9.2,12.3 c-3.4-6.5-5.8-13.5-6.9-20.8c-0.7-4.2-0.9-8.8,1-12.6c1.9-3.8,6.6-6.6,10.6-5.1c5,1.9,5.9,8.4,6.1,13.7 c0.2,6.8,0.5,13.6,0.7,20.5c1.7-6.8,4.3-14.7,10.9-16.9c1.8,9.4,0.4,19.3-3.9,27.8c1.8-3.1,5.2-5.2,8.8-5.3 c1.7,9.5-1.6,19.8-8.5,26.6c1.9-2.1,3.8-4.2,5.7-6.3c1.7,6.6-0.6,14.1-5.7,18.6C685.2,506.9,667.7,497.6,659.6,486.9z"></path> </g> </g> <g> <path class="st12" d="M427.8,369.4l174.8,103.2c1.2,0.7,2.8,0.7,4.2-0.1l12.6-7.3c2.9-1.7,3.2-5.7,0.6-7.3L445.2,354.8 c-1.2-0.7-2.8-0.7-4.2,0.1l-12.6,7.3C425.5,363.8,425.2,367.8,427.8,369.4z"></path> <g> <polygon class="st38" points="610.2,464.2 619.8,457.6 593.5,425.1 602.7,440.5 "></polygon> <path class="st39" d="M413.9,183l9.3-7.5l20.7,23.2c0,0-13.2,9.7-14.4,9.7S413.9,183,413.9,183z"></path> <path class="st38" d="M487.4,450.3L448,427.6c-3.2-1.8-3.1-4.8,0.2-6.5l55.7-29.5c3.1-1.6,7.9-1.6,10.8,0.2l35.5,20.5 c3,1.7,3.1,4.5,0.2,6.3l-51.7,31.8C495.6,452.1,490.5,452.1,487.4,450.3z"></path> <linearGradient id="SVGID_3_" gradientUnits="userSpaceOnUse" x1="451.2591" y1="-156.2019" x2="535.886" y2="-205.0613" gradientTransform="matrix(1 0 0 1 5.9476 595.9249)"> <stop offset="3.940890e-02" style="stop-color:#FFFFFF"></stop> <stop offset="0.3172" style="stop-color:#FCFDFE"></stop> <stop offset="0.5068" style="stop-color:#F3F7FB"></stop> <stop offset="0.6701" style="stop-color:#E4EDF7"></stop> <stop offset="0.8186" style="stop-color:#CEDEF0"></stop> <stop offset="0.9556" style="stop-color:#B3CBE8"></stop> <stop offset="1" style="stop-color:#A8C4E5"></stop> </linearGradient> <path class="st40" d="M487.4,445L448,422.2c-3.2-1.8-3.1-4.8,0.2-6.5l55.7-29.5c3.1-1.6,7.9-1.6,10.8,0.2l35.5,20.5 c3,1.7,3.1,4.5,0.2,6.3L498.7,445C495.6,446.8,490.5,446.8,487.4,445z"></path> <g class="st41"> <polygon class="st24" points="478.6,399.6 526.9,427.7 536.9,421.6 489.1,394 "></polygon> </g> <path class="st39" d="M617.8,286.9l-0.3,0.1h0.1L427.3,176.7l-1.8-1.1c-1.4-0.8-3.2,0.1-3.2,1.9l1.6,0.5h1.1v175 c0,2,0.7,4.3,2.3,5.2c0,0,192.5,93.6,192.5,91.6l0.2-158v-0.3C620,289.7,619.2,287.8,617.8,286.9z"></path> <path class="st38" d="M539.2,355.2c24.7-24.9,38.7,45.7,54.3,84.4c7.8,19.4,26.3,18.2,26.3,18.2l0.3-164.9v-0.8 c0-1-0.1-2.4-0.6-3.3L539.2,355.2z"></path> <linearGradient id="SVGID_4_" gradientUnits="userSpaceOnUse" x1="407.2524" y1="-271.4749" x2="605.4525" y2="-271.4749" gradientTransform="matrix(1 0 0 1 5.9476 595.9249)"> <stop offset="3.940890e-02" style="stop-color:#FFFFFF"></stop> <stop offset="0.3172" style="stop-color:#FCFDFE"></stop> <stop offset="0.5068" style="stop-color:#F3F7FB"></stop> <stop offset="0.6701" style="stop-color:#E4EDF7"></stop> <stop offset="0.8186" style="stop-color:#CEDEF0"></stop> <stop offset="0.9556" style="stop-color:#B3CBE8"></stop> <stop offset="1" style="stop-color:#A8C4E5"></stop> </linearGradient> <path class="st42" d="M608.5,464.1L416.1,353.9c-1.6-0.9-2.9-3.1-2.9-4.9V186.4c0-1.8,1.3-2.5,2.9-1.6L608.5,295 c1.6,0.9,2.9,3.1,2.9,4.9v162.6C611.3,464.3,610,465,608.5,464.1z"></path> <path class="st24" d="M608.6,441.7L415.5,330.2c-1.5-0.8-2.7-2.9-2.7-4.6l-0.3-140.8c0-1.7,1.2-2.4,2.7-1.6l193.1,111.5 c1.5,0.8,2.7,2.9,2.7,4.6l0.3,140.8C611.2,441.9,610,442.6,608.6,441.7z"></path> <polygon class="st32" points="601.2,422.7 419.5,317.8 419.9,195.6 601.6,300.6 "></polygon> </g> <g> <g> <path class="st43" d="M556.9,301.2l-98.8-57c-1.4-0.8-2.6-3.1-2.6-5l0,0c0-1.9,1.2-2.8,2.6-2l98.8,57c1.4,0.8,2.6,3.1,2.6,5l0,0 C559.5,301.2,558.3,302.1,556.9,301.2z"></path> <path class="st15" d="M557.9,333.1l-79.6-45.9c-1.4-0.8-2.6-3.1-2.6-5l0,0c0-1.9,1.2-2.8,2.6-2l79.6,45.9c1.4,0.8,2.6,3.1,2.6,5 l0,0C560.5,333.1,559.3,334,557.9,333.1z"></path> <path class="st43" d="M557.9,350.6l-26.3-15.2c-1.4-0.8-2.6-3.1-2.6-5l0,0c0-1.9,1.2-2.8,2.6-2l26.3,15.2c1.4,0.8,2.6,3.1,2.6,5 l0,0C560.5,350.5,559.3,351.4,557.9,350.6z"></path> <path class="st43" d="M492.2,312.7l-12.7-7.4c-1.4-0.8-2.6-3.1-2.6-5l0,0c0-1.9,1.2-2.8,2.6-2l12.7,7.4c1.4,0.8,2.6,3.1,2.6,5 l0,0C494.8,312.6,493.7,313.5,492.2,312.7z"></path> <path class="st43" d="M476.3,322l-16.8-9.7c-1.4-0.8-2.6-3.1-2.6-5l0,0c0-1.9,1.2-2.8,2.6-2l16.8,9.7c1.4,0.8,2.6,3.1,2.6,5l0,0 C478.9,321.9,477.8,322.8,476.3,322z"></path> <path class="st15" d="M503.3,355.2l-43.9-25.3c-1.4-0.8-2.6-3.1-2.6-5l0,0c0-1.9,1.2-2.8,2.6-2l43.9,25.3c1.4,0.8,2.6,3.1,2.6,5 l0,0C506,355.1,504.8,356,503.3,355.2z"></path> <path class="st43" d="M557.4,368.8L489,329.3c-1.4-0.8-2.6-3.1-2.6-5l0,0c0-1.9,1.2-2.8,2.6-2l68.4,39.5c1.4,0.8,2.6,3.1,2.6,5 l0,0C560,368.7,558.8,369.6,557.4,368.8z"></path> <path class="st43" d="M519,328.1l-11-6.4c-1.4-0.8-2.6-3.1-2.6-5l0,0c0-1.9,1.2-2.8,2.6-2l11,6.4c1.4,0.8,2.6,3.1,2.6,5l0,0 C521.6,328.1,520.4,329,519,328.1z"></path> <path class="st43" d="M505.8,285.9l-27.4-15.8c-1.4-0.8-2.6-3.1-2.6-5l0,0c0-1.9,1.2-2.8,2.6-2l27.4,15.8c1.4,0.8,2.6,3.1,2.6,5 l0,0C508.4,285.9,507.2,286.7,505.8,285.9z"></path> <path class="st15" d="M523.2,296l-7.7-4.4c-1.4-0.8-2.6-3.1-2.6-5l0,0c0-1.9,1.2-2.8,2.6-2l7.7,4.4c1.4,0.8,2.6,3.1,2.6,5l0,0 C525.8,295.9,524.6,296.8,523.2,296z"></path> </g> <polygon class="st44" points="426,315.7 542.2,272.9 584,296.3 468.4,337.7 "></polygon> <polygon class="st44" points="427,306.1 532.7,269.2 509.1,257.1 427,286.2 "></polygon> </g> <path class="st12" d="M504.5,393.1c0,4.2-2.9,5.8-6.6,3.7c-3.6-2.1-6.6-7.2-6.6-11.3c0-4.2,2.9-5.8,6.6-3.7 C501.6,383.8,504.5,388.9,504.5,393.1z"></path> </g> <g> <g> <path class="st45" d="M283.5,358.4l-0.1,4.4c0,0-0.1,13.2-12.8,5.7s-11.4-24-11.4-24S269.2,343.9,283.5,358.4z"></path> <path class="st11" d="M270.6,368.9c16.5,9.7,16.7-5.8,16.7-5.8l0.1,0.1l-0.2-5.3c-18.1-17.2-30.2-17.1-30.2-17.1 S254.1,359.2,270.6,368.9z M259.9,345.2c0,0,9.7,0,23.5,13.3l-0.1,3.8c0,0-0.1,11.5-12.4,4.3 C258.7,359.4,259.9,345.2,259.9,345.2z"></path> <polygon class="st11" points="293.5,366.4 283.6,361.3 283.4,355.6 293.2,360.7 "></polygon> <path class="st11" d="M257.6,345.3l-1.7-0.9c-1-0.5-1.8-1.9-1.8-3.1l0,0c-0.1-1.2,0.7-1.8,1.6-1.3l1.7,0.9c1,0.5,1.8,1.9,1.8,3.1 l0,0C259.3,345.2,258.6,345.8,257.6,345.3z"></path> <path class="st11" d="M321.3,378.4l-1.7-0.9c-1-0.5-1.8-1.9-1.8-3.1l0,0c-0.1-1.2,0.7-1.8,1.6-1.3l1.7,0.9c1,0.5,1.8,1.9,1.8,3.1 l0,0C323,378.3,322.3,378.9,321.3,378.4z"></path> <g> <path class="st45" d="M293.9,364.1l0.5,4.5c0,0,1.3,13.6,13.5,19s9.5-12.6,9.5-12.6S307.1,364.2,293.9,364.1z"></path> <path class="st11" d="M320.1,373.7c0,0-12.7-13-30-14.2l0.2,5.3l0.1,0.1c0,0,1.6,16.4,18,23.8 C324.9,396,320.1,373.7,320.1,373.7z M307.9,385.8c-12.2-5.5-13.4-17.7-13.4-17.7l-0.4-4.1c13.3,0.7,23.4,11.1,23.4,11.1 S320.1,391.4,307.9,385.8z"></path> <path class="st27" d="M296.7,371.2L296.7,371.2c-0.4-0.5-0.5-1.2-0.2-1.4l3.2-3.2c0.3-0.3,0.8-0.1,1.2,0.5l0,0 c0.4,0.5,0.5,1.2,0.2,1.4l-3.2,3.2C297.6,371.9,297.1,371.7,296.7,371.2z"></path> </g> <path class="st27" d="M261.5,352.2L261.5,352.2c-0.4-0.5-0.5-1.2-0.2-1.4l3.2-3.2c0.3-0.3,0.8-0.1,1.2,0.5l0,0 c0.4,0.5,0.5,1.2,0.2,1.4l-3.2,3.2C262.4,352.9,261.9,352.7,261.5,352.2z"></path> </g> <path class="st17" d="M237.8,438l8.1-45.8l28.5,17.4l-6.5,41.6C267.4,457.9,236.5,453.4,237.8,438z"></path> <path class="st17" d="M258,329c0,0-26.6-18.6-29,23.8c-1.7,29.5,15.4,56,39.7,68.8c15.1,8,34.5-0.2,36-14.9 c4.8-21.3,5.8-41.3-0.5-58.9c1.9-17.7-10.9-12-32.4-14.3L258,329z"></path> <path class="st46" d="M242.1,414.8c-2-2.2-4.1-4.3-6.6-5.8c-9-5.1-26.2-19.2-22.5-50.3c5.4-45.1,45-36.2,70-40.1 c10.2-1.6,17.5-1.6,27.5,8.3c9.1,9-0.8,27.7-14.5,28.2c-5.5,0.2-3.7,15-5.1,19.9c-2.4,8.8-8.2,12.9-10.7,21.4 c-2.4,8.1-15.2,19.4-23,20.8C248,418.8,243.9,416.9,242.1,414.8z"></path> <path class="st11" d="M320.6,379.8l-38.5,1.7c-1.4,0.1-2.5-1-2.6-2.4l0,0c-0.1-1.4,1-2.5,2.4-2.6l38.5-1.7c1.4-0.1,2.5,1,2.6,2.4 l0,0C323,378.5,322,379.7,320.6,379.8z"></path> <path class="st17" d="M287.6,388.1c0.2,7.2-3.7,13.2-8.9,13.3c-0.6,0-1.1,0-1.7-0.1c-4.4-0.9-7.9-6.1-8.1-12.5 c-0.2-7.2,3.7-13.2,8.9-13.3C283,375.2,287.3,380.9,287.6,388.1z"></path> </g> <path class="st43" d="M287,455.9c-31.4-6.2-55,12.6-57.8-33.2l0,0c5-2.6,10.8-1,13.4,3.6c4.6,8.1,15.7,13.6,28.8,12.6 c3.9-0.3,7.5,1.6,9.2,5L287,455.9z"></path> <g> <g> <g> <path class="st47" d="M542.9,610l-59.4-34.3c-0.7-0.4-0.7-1.5,0-1.9l81.5-47c0.3-0.2,0.8-0.2,1.1,0l59.4,34.3 c0.7,0.4,0.7,1.5,0,1.9L544,610C543.7,610.2,543.2,610.2,542.9,610z"></path> <rect x="483" y="572" class="st47" width="2" height="3"></rect> <rect x="624" y="560" class="st47" width="3" height="2"></rect> </g> <path class="st48" d="M542.9,608l-59.4-34.3c-0.7-0.4-0.7-1.5,0-1.9l81.5-47c0.3-0.2,0.8-0.2,1.1,0l59.4,34.3 c0.7,0.4,0.7,1.5,0,1.9L544,608C543.7,608.2,543.2,608.2,542.9,608z"></path> </g> <g> <g> <path class="st47" d="M602.3,644.2l-59.4-34.3c-0.7-0.4-0.7-1.5,0-1.9l81.5-47c0.3-0.2,0.8-0.2,1.1,0l59.4,34.3 c0.7,0.4,0.7,1.5,0,1.9l-81.5,47C603.1,644.4,602.6,644.4,602.3,644.2z"></path> <rect x="543" y="607" class="st47" width="2" height="2"></rect> <rect x="683" y="594" class="st47" width="3" height="1"></rect> </g> <path class="st48" d="M602.3,642.2l-59.4-34.3c-0.7-0.4-0.7-1.5,0-1.9l81.5-47c0.3-0.2,0.8-0.2,1.1,0l59.4,34.3 c0.7,0.4,0.7,1.5,0,1.9l-81.5,47C603.1,642.4,602.6,642.4,602.3,642.2z"></path> </g> <path class="st47" d="M504.1,579.4l38.7,25l23.5-18.7C566.4,585.6,520.7,567,504.1,579.4z"></path> <linearGradient id="SVGID_5_" gradientUnits="userSpaceOnUse" x1="568.2347" y1="-6.7756" x2="540.8048" y2="-54.2856" gradientTransform="matrix(1 0 0 1 0 595.9249)"> <stop offset="2.000000e-08" style="stop-color:#9FB0BF"></stop> <stop offset="0.2542" style="stop-color:#A3B3C2"></stop> <stop offset="0.4956" style="stop-color:#AEBDCB"></stop> <stop offset="0.732" style="stop-color:#C1CEDB"></stop> <stop offset="0.964" style="stop-color:#DCE6F0"></stop> <stop offset="1" style="stop-color:#E1EAF4"></stop> </linearGradient> <path class="st49" d="M543.2,603.7c-3.3-12.6-26.7-17.8-53.3-30.8c-0.9-0.5-0.7-1.4,0.2-1.9l72.3-41.7c1-0.6,2.5-0.6,3.3-0.1 c33.1,9.8,53.7,20,53.3,30.8L543.2,603.7z"></path> <linearGradient id="SVGID_6_" gradientUnits="userSpaceOnUse" x1="441.9491" y1="38.1484" x2="412.4797" y2="-12.8942" gradientTransform="matrix(0.8824 4.120000e-02 -6.790000e-02 1.0238 182.7877 531.2686)"> <stop offset="2.000000e-08" style="stop-color:#9FB0BF"></stop> <stop offset="2.195468e-02" style="stop-color:#A9B8C6"></stop> <stop offset="9.211859e-02" style="stop-color:#C4CED7"></stop> <stop offset="0.1727" style="stop-color:#DAE0E6"></stop> <stop offset="0.2668" style="stop-color:#EBEEF1"></stop> <stop offset="0.3832" style="stop-color:#F6F8F9"></stop> <stop offset="0.5466" style="stop-color:#FDFDFE"></stop> <stop offset="1" style="stop-color:#FFFFFF"></stop> </linearGradient> <path class="st50" d="M543.2,603.7c2.4-14.7-21-22.2-44.8-37.4c-0.8-0.6-0.6-1.5,0.4-2.1l69.9-41.7c1-0.6,2.3-0.6,3.1,0 c30,12,48.4,25.3,47.2,36.9L543.2,603.7z"></path> <g> <path class="st51" d="M601.3,544.3l-25.6-16.4c-0.3-0.2-0.3-0.5,0.1-0.8l0,0c0.4-0.2,1-0.2,1.3,0l25.6,16.4 c0.3,0.2,0.3,0.5-0.1,0.8l0,0C602.2,544.5,601.6,544.5,601.3,544.3z"></path> <path class="st51" d="M592.9,549.7l-25.6-16.4c-0.3-0.2-0.3-0.5,0.1-0.8l0,0c0.4-0.2,1-0.2,1.3,0l25.6,16.4 c0.3,0.2,0.3,0.5-0.1,0.8l0,0C593.8,549.9,593.2,549.9,592.9,549.7z"></path> <path class="st51" d="M584.5,555.2l-25.6-16.4c-0.3-0.2-0.3-0.5,0.1-0.8l0,0c0.4-0.2,1-0.2,1.3,0l25.6,16.4 c0.3,0.2,0.3,0.5-0.1,0.8l0,0C585.4,555.4,584.8,555.4,584.5,555.2z"></path> <path class="st51" d="M576.1,560.6l-25.6-16.4c-0.3-0.2-0.3-0.5,0.1-0.8l0,0c0.4-0.2,1-0.2,1.3,0l25.6,16.4 c0.3,0.2,0.3,0.5-0.1,0.8l0,0C577,560.8,576.4,560.8,576.1,560.6z"></path> <path class="st51" d="M567.7,566l-25.6-16.4c-0.3-0.2-0.3-0.5,0.1-0.8l0,0c0.4-0.2,1-0.2,1.3,0l25.6,16.4 c0.3,0.2,0.3,0.5-0.1,0.8l0,0C568.6,566.2,568,566.2,567.7,566z"></path> <path class="st51" d="M559.1,573.5l-25.6-16.4c-0.3-0.2-0.3-0.5,0.1-0.8l0,0c0.4-0.2,1-0.2,1.3,0l25.6,16.4 c0.3,0.2,0.3,0.5-0.1,0.8l0,0C560,573.7,559.4,573.7,559.1,573.5z"></path> <path class="st51" d="M550.7,579l-25.6-16.4c-0.3-0.2-0.3-0.5,0.1-0.8l0,0c0.4-0.2,1-0.2,1.3,0l25.6,16.4 c0.3,0.2,0.3,0.5-0.1,0.8l0,0C551.6,579.2,551,579.2,550.7,579z"></path> <path class="st51" d="M542.3,584.4L516.6,568c-0.3-0.2-0.3-0.5,0.1-0.8l0,0c0.4-0.2,1-0.2,1.3,0l25.6,16.4 c0.3,0.2,0.3,0.5-0.1,0.8l0,0C543.2,584.6,542.6,584.6,542.3,584.4z"></path> </g> <path class="st47" d="M542.9,604.3l31.5,15.3C574.4,619.7,552.2,593.8,542.9,604.3z"></path> <path class="st16" d="M543.2,603.7c0,0,7.3-2.7,13.2,2.2s43.5,33.2,43.5,33.2l76.5-43.7c0,0-40.9-39.6-57.4-35.4L543.2,603.7z"></path> <path class="st51" d="M653,584.7l-25.3-17c-0.3-0.2-0.3-0.6,0.1-0.7l0,0c0.4-0.2,1-0.2,1.3,0l25.3,17c0.3,0.2,0.3,0.6-0.1,0.7l0,0 C653.9,584.9,653.3,584.9,653,584.7z"></path> <path class="st51" d="M644.4,589.9l-25.3-17c-0.3-0.2-0.3-0.6,0.1-0.7l0,0c0.4-0.2,1-0.2,1.3,0l25.3,17c0.3,0.2,0.3,0.6-0.1,0.7 l0,0C645.4,590.2,644.8,590.2,644.4,589.9z"></path> <path class="st51" d="M635.9,595.2l-25.3-17c-0.3-0.2-0.3-0.6,0.1-0.7l0,0c0.4-0.2,1-0.2,1.3,0l25.3,17c0.3,0.2,0.3,0.6-0.1,0.7 l0,0C636.8,595.4,636.2,595.4,635.9,595.2z"></path> <path class="st51" d="M627.4,600.4l-25.3-17c-0.3-0.2-0.3-0.6,0.1-0.7l0,0c0.4-0.2,1-0.2,1.3,0l25.3,17c0.3,0.2,0.3,0.6-0.1,0.7 l0,0C628.3,600.7,627.7,600.6,627.4,600.4z"></path> <path class="st51" d="M618.9,605.7l-25.3-17c-0.3-0.2-0.3-0.6,0.1-0.7l0,0c0.4-0.2,1-0.2,1.3,0l25.3,17c0.3,0.2,0.3,0.6-0.1,0.7 l0,0C619.8,605.9,619.2,605.9,618.9,605.7z"></path> <path class="st51" d="M610.1,613l-25.3-17c-0.3-0.2-0.3-0.6,0.1-0.7l0,0c0.4-0.2,1-0.2,1.3,0l25.3,17c0.3,0.2,0.3,0.6-0.1,0.7l0,0 C611,613.2,610.4,613.2,610.1,613z"></path> <path class="st51" d="M601.6,618.2l-25.3-17c-0.3-0.2-0.3-0.6,0.1-0.7l0,0c0.4-0.2,1-0.2,1.3,0l25.3,17c0.3,0.2,0.3,0.6-0.1,0.7 l0,0C602.5,618.5,601.9,618.4,601.6,618.2z"></path> <path class="st51" d="M593,623.5l-25.3-17c-0.3-0.2-0.3-0.6,0.1-0.7l0,0c0.4-0.2,1-0.2,1.3,0l25.3,17c0.3,0.2,0.3,0.6-0.1,0.7l0,0 C593.9,623.7,593.4,623.7,593,623.5z"></path> <path class="st19" d="M646.5,570.8c-8.8,7.8-32.6,26.5-45.2,36.3c-0.6,0.5-0.2,1.4,0.5,1.4l9.4-0.7c0.5,0,1,0.5,0.8,1l-2.1,6.5 c-0.2,0.7,0.6,1.3,1.2,0.9c5.3-3.8,19.7-19.4,40.5-39.9c1.7-1.7,1.4-4.5-0.6-5.8l0,0C649.5,569.5,647.7,569.6,646.5,570.8z"></path> </g> <g> <path class="st19" d="M745.3,309.2L688,276c-2.4-1.4-4.4-1.4-6-0.3l0,0l-9.7,5.5c0,0,3.7,5.7,6.7,12.5v51.8c0,6.6,4,14.2,8.9,17.1 l46.7,27c4.4,7.3,7.3,12.1,7.3,12.1l9-5.2l0,0c2-0.9,3-3.6,3-7.4v-62.7C754,319.7,750.2,312,745.3,309.2z"></path> <path class="st18" d="M735.6,401.4l-57.5-33.2c-4.9-2.8-8.9-10.5-8.9-17.1v-62.7c0-6.6,4-9.6,8.9-6.7l57.5,33.2 c4.9,2.8,8.9,10.5,8.9,17.1v62.7C744.5,401.3,740.5,404.3,735.6,401.4z"></path> <path class="st52" d="M728,404.7l-57.5-33.2c-4.9-2.8-8.9-10.5-8.9-17.1v-62.7c0-6.6,4-9.6,8.9-6.7l57.5,33.2 c4.9,2.8,8.9,10.5,8.9,17.1V398C737,404.6,733,407.6,728,404.7z"></path> <g> <g> <polygon class="st16" points="691,353.3 675.8,327 692.4,317.5 695.6,323.1 684.6,329.4 696.6,350 "></polygon> </g> <g> <polygon class="st16" points="721.2,369.4 718,363.8 728.8,357.6 716.6,336.7 722.2,333.4 737.7,360 "></polygon> </g> <g> <rect x="685.5" y="341" transform="matrix(0.2613 -0.9653 0.9653 0.2613 190.1959 937.0277)" class="st16" width="43.6" height="6.5"></rect> </g> </g> </g> <g> <path class="st53" d="M639.1,135.9l-57.4-33.2c-2.4-1.4-4.5-1.4-6-0.3l0,0l-9.5,5.5c0,0,2.9,5.7,6.9,12.5v51.8 c0,6.6,3.8,14.2,8.7,17.1l46.6,27c4.4,7.3,7.5,12.1,7.5,12.1l9.2-5.2l0,0c1-0.9,3-3.6,3-7.4V153C648,146.4,644,138.8,639.1,135.9z "></path> <path class="st37" d="M629.2,228.2L571.7,195c-4.9-2.8-8.9-10.5-8.9-17.1v-62.7c0-6.6,4-9.6,8.9-6.7l57.5,33.2 c4.9,2.8,8.9,10.5,8.9,17.1v62.7C638.1,228,634.1,231,629.2,228.2z"></path> <path class="st54" d="M619.7,230.9l-57.5-33.2c-4.9-2.8-8.9-10.5-8.9-17.1V118c0-6.6,4-9.6,8.9-6.7l57.5,33.2 c4.9,2.8,8.9,10.5,8.9,17.1v62.7C628.6,230.8,624.6,233.8,619.7,230.9z"></path> <path class="st16" d="M622.8,174.4L622.8,174.4c-2.8-1.6-4.2-6.3-2.2-7.5l0,0c2.3-1.3,2.3-5.5,0-9.4l-1.2-2 c-2.3-3.9-5.9-6-8.2-4.7l0,0c-2,1.1-5.4-2.4-5.4-5.7l0,0c0-3.7-2.6-8.1-5.8-10l-1.6-0.9c-3.2-1.8-5.8-0.4-5.8,3.3l0,0 c0,3.2-3.4,2.9-5.4-0.6l0,0c-2.3-3.9-5.9-6-8.2-4.7l-1.2,0.7c-2.3,1.3-2.3,5.5,0,9.4l0,0c2,3.4,0.6,6.5-2.2,4.9l0,0 c-3.2-1.8-5.8-0.4-5.8,3.3v1.9c0,3.7,2.6,8.1,5.8,10c2.8,1.6,4.2,6.3,2.2,7.5l0,0c-2.3,1.3-2.3,5.5,0,9.4l1.2,2 c2.3,3.9,5.9,6,8.2,4.7l0,0c2-1.1,5.4,2.4,5.4,5.7l0,0c0,3.7,2.6,8.1,5.8,10l1.6,0.9c3.2,1.8,5.8,0.4,5.8-3.3 c0-3.2,3.4-2.9,5.4,0.6c2.3,3.9,5.9,6,8.2,4.7l1.2-0.7c2.3-1.3,2.3-5.5,0-9.4l0,0c-2-3.4-0.6-6.5,2.2-4.9l0,0 c3.2,1.8,5.8,0.4,5.8-3.3v-1.9C628.5,180.7,625.9,176.2,622.8,174.4z M599.2,184.8c-7.9-4.6-14.3-15.6-14.3-24.7 c0-9.1,6.4-12.7,14.3-8.2c7.9,4.6,14.3,15.6,14.3,24.7S607.1,189.4,599.2,184.8z"></path> </g> <g> <path class="st55" d="M744.9,191.2L687.4,158c-2.4-1.4-4.5-1.4-6.1-0.3l0,0l-9.8,5.5c0,0,3.5,5.7,6.5,12.5v51.8 c0,6.6,4.1,14.2,9,17.1l46.8,27c4.4,7.3,7.2,12.1,7.2,12.1l9-5.2l0,0c2-0.9,4-3.6,4-7.4v-62.7C754,201.7,749.8,194,744.9,191.2z"></path> <path class="st56" d="M734.8,283.5l-57.5-33.2c-4.9-2.8-8.9-10.5-8.9-17.1v-62.7c0-6.6,4-9.6,8.9-6.7l57.5,33.2 c4.9,2.8,8.9,10.5,8.9,17.1v62.7C743.7,283.3,739.7,286.3,734.8,283.5z"></path> <path class="st57" d="M726.7,288.7l-57.5-33.2c-4.9-2.8-8.9-10.5-8.9-17.1v-62.7c0-6.6,4-9.6,8.9-6.7l57.5,33.2 c4.9,2.8,8.9,10.5,8.9,17.1V282C735.6,288.5,731.6,291.6,726.7,288.7z"></path> <g> <path class="st16" d="M712,248.6l1,0.6c2.2,1.3,2.8,0.7,2.8-2.6s-0.2-6.3-0.2-10.1c0-4.6,1.3-5.7,3.9-4.9v-0.2 c-2.7-2.3-3.9-4.8-3.9-9.4c0-3.7,0.2-6.5,0.2-9.8c0-3.4-0.6-4.6-2.8-5.9l-1-0.6v-4.8l3.3,1.9c4.7,2.7,6.8,6,6.8,12.6 c0,4.3-0.5,6.3-0.5,10.1c0,2.1,1.1,5,4.6,7.2v5.2c-3.5-1.9-4.6-0.3-4.6,1.9c0,3.8,0.5,6.4,0.5,10.7c0,6.6-2.1,7.4-6.8,4.7 l-3.3-1.9V248.6z"></path> </g> <g> <path class="st16" d="M695.4,243.8l-3.3-1.9c-4.7-2.7-6.8-6-6.8-12.6c0-4.3,0.5-6.3,0.5-10.1c0-2.1-1.1-5-4.6-7.2v-5.2 c3.5,1.9,4.6,0.3,4.6-1.9c0-3.8-0.5-6.4-0.5-10.7c0-6.6,2.1-7.4,6.8-4.7l3.3,1.9v4.8l-1-0.6c-2.2-1.3-2.8-0.7-2.8,2.6 s0.2,6.3,0.2,10.1c0,4.6-1.3,5.7-3.9,4.9v0.2c2.7,2.3,3.9,4.8,3.9,9.4c0,3.7-0.2,6.5-0.2,9.8c0,3.4,0.6,4.6,2.8,5.9l1,0.6V243.8z "></path> </g> </g> </g> </svg> 